<?xml version="1.0" encoding="utf-8"?>
<!-- Generator: Adobe Illustrator 16.0.4, SVG Export Plug-In . SVG Version: 6.00 Build 0)  -->
<!DOCTYPE svg PUBLIC "-//W3C//DTD SVG 1.1//EN" "http://www.w3.org/Graphics/SVG/1.1/DTD/svg11.dtd">
<svg version="1.1" xmlns="http://www.w3.org/2000/svg" xmlns:xlink="http://www.w3.org/1999/xlink" x="0px" y="0px" width="1500px"
	 height="500px" viewBox="0 0 1500 500" enable-background="new 0 0 1500 500" xml:space="preserve">
<g id="for_dark_backgrounds">
	<g id="back_xA0_Image" display="inline">
		<g>
			<path fill-rule="evenodd" clip-rule="evenodd" fill="#232527" d="M228.028,480.621c-5.213-5.663-9.311-12.048-12.92-18.65
				c-5.007-9.158-9.619-18.48-11.262-29.084c-1.676-10.815,1.971-19.64,9.061-27.157c7.416-7.863,15.466-15.104,19.925-25.302
				c4.396-10.053,2.941-19.656-1.709-29.121c-0.433-0.882-0.852-1.97-2.061-1.834c-1.304,0.146-1.16,1.5-1.445,2.353
				c-3.119,9.349-8.855,15.704-18.451,19.293c-12.512,4.679-20.515,13.786-22.279,27.56c-0.073,0.573-0.555,1.094-0.894,1.727
				c-2.372-1.359-1.874-3.544-2.146-5.385c-1.723-11.667-1.908-23.418-0.552-35.081c1.068-9.183,2.552-18.413,7.09-26.751
				c0.588-1.08,0.882-2.227-0.156-3.206c-0.959-0.905-1.903-0.142-2.732,0.274c-10.244,5.14-20.398,10.386-30.062,16.636
				c-14.188,9.177-29.137,12.36-45.052,3.846c-3.18-1.701-6.82-2.566-10.289-3.69c-1.115-0.361-2.542-0.381-2.589-1.809
				c-0.053-1.611,1.679-1.482,2.634-1.729c11.342-2.939,21.654-8.35,32.228-13.159c9.246-4.206,15.606-11.722,22.302-18.854
				c2.713-2.89,5.069-6.121,7.489-9.273c0.872-1.135,2.092-2.389,1.215-4.008c-0.75-1.385-2.253-1.182-3.58-1.213
				c-13.952-0.333-27.923-1.282-41.849-0.826c-13.6,0.444-26.902,3.624-39.716,8.298c-7.385,2.694-13.867,1.766-20.203-2.779
				c-6.196-4.445-12.705-8.5-17.714-14.341c-0.996-1.161-3.305-2.755-1.708-4.653c1.382-1.643,3.002,0.329,4.47,0.83
				c11.603,3.958,23.178,7.24,35.262,1.562c4.726-2.221,8.498-5.699,12.717-8.592c7.33-5.024,14.184-11.208,24.055-10.518
				c3.834,0.268,7.542,1.092,11.175,2.24c7.3,2.309,14.629,2.381,22.109,0.941c2.112-0.406,3.661-1.558,5.315-2.565
				c3.762-2.293,4.983-0.752,5.299,2.989c1.141,13.505,5.514,25.968,13.202,37.06c12.215,17.624,29.379,27.914,50.176,32.322
				c11.45,2.428,22.916,2.407,34.494,0.356c5.128-0.907,7.497,4.072,9.755,7.349c9.361,13.574,8.523,29.857-1.857,42.988
				c-9.552,12.083-18.891,24.375-29.118,35.868c-6.4,7.193-7.426,15.531-8.712,24.228
				C227.436,459.979,227.911,470.178,228.028,480.621z"/>
			<path fill-rule="evenodd" clip-rule="evenodd" fill="#232527" d="M201.098,166.841c-1.152-8.421,2.815-15.728,6.091-23.13
				c5.115-11.56,11.416-22.474,18.544-32.934c10.315-15.136,12.769-31.944,10.532-49.851c-0.839-6.719-0.19-13.591-1.219-20.35
				c-0.298-1.955-0.268-4.021,0.004-5.982c0.243-1.751-2.292-4.086-0.146-4.872c2.191-0.803,2.844,2.364,3.765,3.867
				c12.029,19.631,19.458,41.128,23.976,63.515c2.192,10.863-1.083,21.428-7.054,30.851c-4.447,7.019-8.738,14.095-11.684,21.9
				c-2.754,7.299-2.577,14.65,0.052,21.888c0.906,2.493,0.541,3.183-2.104,3.296c-11.678,0.503-23.06,2.589-33.729,7.518
				c-2.775,1.282-3.801,0.441-4.861-1.937C201.318,176.257,200.659,171.729,201.098,166.841z"/>
			<path fill-rule="evenodd" clip-rule="evenodd" fill="#232527" d="M404.455,240.034c10.5-1.231,21.414,1.76,31.807,7.095
				c3.565,1.83,6.72,4.261,9.491,7.155c0.985,1.029,2.725,1.985,1.868,3.688c-0.905,1.803-2.543,0.593-3.962,0.445
				c-8.213-0.853-16.115-3.355-24.51-3.582c-13.577-0.366-25.454,4.09-36.5,11.158c-10.493,6.715-21.345,12.723-32.627,17.923
				c-7.649,3.526-15.862,4.646-24.293,4.093c-3.077-0.201-4.076-1.336-3.083-4.506c2.747-8.771,3.971-17.808,3.28-26.979
				c-0.31-4.123,1.672-5.687,5.17-6.384c19.598-3.907,39.21-7.762,59.079-10.036C394.446,239.616,398.821,240.034,404.455,240.034z"
				/>
			<path fill-rule="evenodd" clip-rule="evenodd" fill="#232527" d="M126.7,117.01c13.195-1.086,22.449,6.732,26.458,19.024
				c3.596,11.022,8.519,21.409,17.588,29.007c5.984,5.013,12.013,9.936,17.377,15.614c1.245,1.317,2.22,2.886,3.426,4.243
				c2.322,2.615,1.666,4.897-0.803,6.824c-8.049,6.284-15,13.549-20.205,22.382c-1.316,2.232-2.571,1.717-3.751,0.069
				c-6.458-9.021-14.07-17.42-17.98-27.932c-3.513-9.441-6.37-19.464-6.509-29.435c-0.2-14.357-13.111-26.5-24.123-28.788
				c-4.038-0.839-7.941-2.454-12.202-2.053c-0.93,0.087-2.244,0.258-2.462-1.03c-0.191-1.13,1.033-1.496,1.79-2.118
				C111.615,117.63,119.08,116.799,126.7,117.01z"/>
			<path fill-rule="evenodd" clip-rule="evenodd" fill="#232527" d="M417.039,339.257c-7.923-3.124-13.239-8.308-19.345-12.206
				c-7.331-4.682-15.021-8.602-23.118-11.62c-10.151-3.785-19.215,0.374-28.041,4.86c-6.636,3.374-13.461,4.556-20.958,3.974
				c-6.659-0.518-13.206-1.033-19.5-3.363c-5.21-1.929-5.406-2.955-1.603-6.895c5.091-5.271,9.724-10.905,12.801-17.631
				c1.415-3.091,3.087-4.788,6.89-3.408c7.201,2.614,14.448,0.139,21.641-0.47c9.076-0.767,18.06-1.678,26.93,1.5
				c3.846,1.377,7.179,3.293,10.021,6.226c7.169,7.398,14.913,14.169,22.722,20.886
				C410.783,325.673,414.977,331.166,417.039,339.257z"/>
			<path fill-rule="evenodd" clip-rule="evenodd" fill="#232527" d="M279.56,84.906c4.735,7.93,6.459,16.785,8.462,25.575
				c5.219,22.901,3.978,46.167,3.895,69.349c-0.036,9.909-0.484,10.041-9.282,5.426c-8.004-4.199-16.429-7.263-25.209-9.044
				c-4.272-0.867-3.7-2.133-1.725-4.677c6.775-8.729,11.843-18.404,15.386-28.832c3.408-10.031,5.729-20.302,7.042-30.873
				C279.24,102.886,278.682,93.95,279.56,84.906z"/>
			<path fill-rule="evenodd" clip-rule="evenodd" fill="#232527" d="M114.099,197.939c8.06,0.2,14.868,2.575,19.047,10.218
				c1.578,2.886,3.786,5.426,5.704,8.126c4.709,6.633,11.815,8.245,19.208,8.612c4.56,0.226,5.517,1.656,3.946,5.82
				c-2.34,6.198-4.616,12.463-4.028,19.312c0.257,2.992-1.708,3.25-3.913,2.803c-18.608-3.771-32.281-14.017-40.299-31.324
				c-3.41-7.36-13.396-12.082-22.342-10.209c-2.259,0.473-5.471,2.889-6.638,0.708c-1.19-2.223,2.729-3.109,4.358-4.547
				C96.228,201.203,104.525,197.885,114.099,197.939z"/>
			<path fill-rule="evenodd" clip-rule="evenodd" fill="#232527" d="M314.045,355.662c0.234,20.788-9.551,35.703-26.851,46.267
				c-0.991,0.605-1.863,1.488-2.924,1.877c-1.561,0.571-2.8,3.308-4.681,1.461c-1.429-1.404-0.388-3.404,0.332-5.131
				c3.768-9.038,7.641-18.032,10.691-27.357c4.307-13.166-0.792-26.761-12.785-33.885c-1.165-0.691-3.352-0.688-3.061-2.668
				c0.206-1.396,1.999-1.619,3.162-2.163c6.473-3.026,12.9-6.065,17.985-11.334c3.172-3.287,5.542-2.513,8.196,1.236
				C310.888,333.539,313.783,344.16,314.045,355.662z"/>
			<path fill-rule="evenodd" clip-rule="evenodd" fill="#232527" d="M404.88,218.285c-6.496-1.97-12.338-3.242-17.771-5.497
				c-9.488-3.938-17.118-1.361-23.908,5.523c-5.133,5.204-10.53,10.06-16.337,14.548c-5.929,4.583-12.943,4.627-19.668,6.03
				c-1.672,0.349-3.268-0.725-3.6-2.125c-1.691-7.132-4.934-13.642-8.482-20.565c6.562-0.11,12.12-1.474,17.571-3.496
				c6.206-2.302,10.309-7.162,14.732-11.642c5.507-5.575,11.758-9.127,19.947-8.067c4.763,0.616,8.495,3.618,12.534,5.68
				c8.716,4.449,17.054,9.681,23.536,17.29C403.818,216.414,404.071,216.974,404.88,218.285z"/>
			<path fill-rule="evenodd" clip-rule="evenodd" fill="#232527" d="M341.025,162.325c-0.374,10.336-4.549,18.556-10.714,25.73
				c-4.642,5.402-10.008,10.149-14.644,15.616c-4.144,4.886-4.821,4.571-9.284,0.241c-3.927-3.81-7.423-8.077-12.038-11.175
				c-1.133-0.76-2.669-1.827-1.84-3.664c3.716-8.232,6.119-17.542,15.558-21.495c4.164-1.744,8-3.971,11.943-6.09
				c6.581-3.537,8.027-10.247,10.768-16.198c0.206-0.447,0.172-1.012,0.407-1.435c1.336-2.4,0.948-7.184,3.462-7.015
				c2.563,0.172,2.5,4.829,3.14,7.537C339.222,150.474,340.049,156.714,341.025,162.325z"/>
		</g>
	</g>
	<g id="front_xA0_Image" display="inline">
		<g>
			<path fill-rule="evenodd" clip-rule="evenodd" fill="#7697D3" d="M58,343c7.633-0.265,15.311,0.785,22.9-0.769
				c9.132-1.869,15.966-7.089,21.35-14.506c3.421-4.713,7.072-9.261,10.444-14.008c5.774-8.128,14.005-10.729,23.448-10.808
				c8.461-0.07,16.539-1.392,23.59-6.634c2.572-1.913,4.359-4.495,6.714-7.338c4.292,9.959,9.243,18.909,16.302,26.519
				c21.659,23.349,48.387,29.525,78.759,23.122c7.195-1.517,14.075-4.11,20.481-7.705c2.663-1.494,4.847-1.269,7.452-0.187
				c14.17,5.881,22.743,25.103,19.214,38.492c-3.708,14.07-8.862,27.723-15.187,40.563c-7.691,15.614-5.909,30.422-1.686,45.888
				c1.749,6.405,4.123,12.562,7.157,18.344c-0.835,1.026-1.464,0.344-1.879,0.041c-11.594-8.47-22.443-17.688-31.429-29.051
				c-11.018-13.931-11.042-28.241-2.558-43.176c3.806-6.701,6.749-13.702,8.049-21.355c2.176-12.811-2.103-23.918-12.719-32.562
				c-1.004,1.701-0.379,3.538-0.514,5.272c-0.667,8.605-3.319,15.899-10.588,21.578c-12.195,9.526-17.051,22.175-13.229,37.794
				c-2.355-0.746-2.991-2.646-3.7-4.156c-8.198-17.451-14.146-35.521-14.326-55.055c-0.024-2.637,0.56-5.275,0.783-7.92
				c0.098-1.162,0.113-2.478-1.126-3.081c-1.108-0.54-1.822,0.442-2.539,1.102c-8.227,7.564-16,15.603-22.985,24.296
				c-10.7,13.316-23.332,21.46-41.331,18.574c-4.988-0.8-10.214-0.122-15.254-0.122c-0.583-2.66,1.265-3.026,2.376-3.743
				c8.16-5.265,15.099-11.987,22.406-18.299c12.528-10.822,18.525-25.324,23.82-40.324c0.503-1.426,1.169-2.886-0.107-4.2
				c-0.786-0.809-1.872-0.699-2.79-0.228c-9.158,4.708-19.391,5.701-29.117,8.433c-18.085,5.08-33.893,14.482-48.803,25.544
				c-4.014,2.978-8.27,4.661-13.026,3.572C77.668,354.464,66.955,351.921,58,345C58,344.333,58,343.667,58,343z"/>
			<path fill-rule="evenodd" clip-rule="evenodd" fill="#7697D3" d="M164.042,41.315c13.819,9.405,23.307,20.978,32.362,32.913
				c4.421,5.828,8.36,12.025,12.466,18.09c8.514,12.576,9.693,26.195,5.774,40.567c-2.718,9.966-5.263,19.96-2.807,30.426
				c1.047,4.462,3.173,8.375,5.799,12.055c1.207,1.69,2.019,2.813-0.903,3.901c-11.307,4.208-21.933,9.688-30.594,18.326
				c-2.345,2.339-3.266-0.038-4.23-1.175c-7.578-8.937-9.546-19.456-8.521-30.824c1.409-15.615,4.85-30.783,8.989-45.895
				c3.918-14.305,1.438-28.351-4.034-41.97C173.654,66.057,169.139,54.312,164.042,41.315z"/>
			<path fill-rule="evenodd" clip-rule="evenodd" fill="#7697D3" d="M439.06,194.46c-5.847,3.026-11.655,2.576-17.189,3.327
				c-17.267,2.342-31.616,9.767-42.405,23.576c-7.71,9.868-16.53,18.69-25.551,27.298c-6.222,5.937-13.728,9.819-22.146,11.911
				c-3.25,0.808-4.886,0.54-4.84-3.517c0.108-9.555-2.021-18.778-5.187-27.755c-0.702-1.99-1.478-3.669,1.022-5.051
				c22.526-12.453,44.534-25.956,69.164-34.137c11.255-3.739,22.741-4.639,34.348-2.023
				C430.784,189.105,435.016,191.007,439.06,194.46z"/>
			<path fill-rule="evenodd" clip-rule="evenodd" fill="#7697D3" d="M69.193,175.095c0.599-1.533,0.833-2.462,1.293-3.26
				c9.643-16.715,37.297-19.02,48.741-3.606c9.649,12.995,21.302,22.657,36.945,27.415c5.564,1.692,10.651,4.619,15.351,8.172
				c3.172,2.397,3.965,4.422,1.309,8.107c-6.176,8.572-10.388,18.145-12.392,29.518c-11.563-8.167-23.776-14.836-31.475-26.77
				c-5.585-8.658-10.605-17.653-15.14-26.963c-4.389-9.01-12.473-13.672-22.383-14.673
				C84.159,172.299,76.865,172.716,69.193,175.095z"/>
			<path fill-rule="evenodd" clip-rule="evenodd" fill="#7697D3" d="M318.012,298.007c-1.017-1.75,0.112-3.127,0.753-4.623
				c3.336-7.795,6.821-15.559,7.414-24.185c0.164-2.385,1.438-3.108,3.59-3.118c5.808-0.024,10.986-2.22,16.153-4.604
				c10.396-4.798,20.582-10.279,32.645-9.617c3.912,0.215,7.646,0.891,11.038,2.71c9.835,5.273,20.079,9.651,30.245,14.208
				c6.629,2.971,11.309,7.147,13.651,12.278c-6.496,0.072-12.058-2.806-17.855-4.396c-8.199-2.25-16.477-3.74-24.902-4.818
				c-11.611-1.485-20.678,3.302-27.935,11.417c-9.454,10.574-21.832,13.274-34.889,14.685c-3.287,0.354-6.648,0.025-9.975,0.01
				L318.012,298.007z"/>
			<path fill-rule="evenodd" clip-rule="evenodd" fill="#7697D3" d="M232.494,183.263c44.929,0.654,75.848,27.385,80.104,66.716
				c3.748,34.637-25.302,76.003-53.809,78.792c0.47-1.649,2.039-1.984,3.158-2.714c20.315-13.234,30.648-32.766,32.85-56.122
				c3.378-35.841-13.356-63.022-47.42-79.813C242.661,187.797,237.826,185.712,232.494,183.263z"/>
			<path fill-rule="evenodd" clip-rule="evenodd" fill="#7697D3" d="M267.772,177.96c-13.583-2.799-26.688-4.374-40.456-1.697
				c11.796-32.475,8.178-63.745-3.429-95.065C238.024,90.641,260.659,140.721,267.772,177.96z"/>
			<path fill-rule="evenodd" clip-rule="evenodd" fill="#7697D3" d="M157.911,251.184c0.085,9.441-0.812,18.156,2.516,26.428
				c0.829,2.062-0.595,2.154-1.975,2.39c-18.433,3.144-34.637-2.208-47.408-15.18c-8.722-8.858-17.946-9.168-27.29-3.975
				c-1.726,0.959-3.416,1.982-6.419,3.731c4.996-10.582,11.146-18.11,20.769-22.486c9.744-4.431,18.875-4.568,27.105,3.453
				C134.575,254.673,145.59,255.719,157.911,251.184z"/>
			<path fill-rule="evenodd" clip-rule="evenodd" fill="#7697D3" d="M317.944,297.952c3.766,4.163,8.8,6.877,12.37,11.339
				c18.601,23.246,19.642,51.963-3.977,75.879c-0.798,0.809-1.57,2.175-2.82,1.6c-1.629-0.749-1.331-2.492-1.193-3.981
				c0.903-9.759,1.724-19.52,1.751-29.334c0.043-15.953-8.106-26.216-23.761-29.792c-1.128-0.258-2.253-0.526-4.026-0.941
				c6.179-5.405,11.766-10.853,16.234-17.364c1.716-2.502,2.102-6.087,5.49-7.35C318.012,298.007,317.944,297.952,317.944,297.952z"
				/>
			<path fill-rule="evenodd" clip-rule="evenodd" fill="#7697D3" d="M299.138,195.579c7.334-2.643,13.507-6.268,18.66-11.643
				c3.922-4.091,5.552-9.405,8.284-14.124c1.848-3.191,3.732-6.318,6.806-8.469c4.337-3.035,8.833-4.582,14.457-3.639
				c10.157,1.702,20.307,3.181,29.885,7.214c2.604,1.097,5.046,2.414,8.585,5.172c-6.734,0-12.1,0.42-17.375-0.087
				c-11.334-1.087-18.575,3.974-23.492,13.816c-2.883,5.771-6.016,11.435-9.739,16.791c-4.537,6.527-10.955,9.955-18.004,12.708
				c-1.277,0.499-2.567,1.193-3.479-0.411C310,206.354,304.498,201.259,299.138,195.579z"/>
			<path fill-rule="evenodd" clip-rule="evenodd" fill="#7697D3" d="M292.083,112.939c6.69,7.473,11.514,15.582,15.02,24.375
				c2.899,7.269,2.025,14.707-0.46,21.931c-3.14,9.125-8.038,17.469-12.005,26.229c-1.328,2.932-2.943,4.2-6.44,1.849
				c-4.8-3.228-10.183-5.576-15.744-7.378c-1.959-0.634-3.781-1.439-3.318-4.114c0.903-5.217,1.021-10.563,2.669-15.661
				c1.047-3.238,2.527-6.387,5.234-8.325c11.624-8.324,16.38-19.56,15.067-33.618C291.941,116.478,292.083,114.702,292.083,112.939z
				"/>
		</g>
	</g>
	<g id="blacklight__x28_outlines_x29__1_" display="inline">
		<g>
			<path fill="#CDCDCD" d="M501.011,207.786c0-3.15-1.68-4.62-4.62-4.62h-8.61v-17.431h20.161c9.45,0,13.44,3.99,13.44,13.44v34.651
				c0,5.041-0.42,8.82-0.42,8.82h0.42c0,0,9.24-17.431,34.231-17.431c28.561,0,46.622,22.681,46.622,55.652
				c0,33.812-20.371,55.652-48.302,55.652c-23.73,0-33.391-17.851-33.391-17.851h-0.42c0,0,0.42,3.359,0.42,7.979V334h-19.53
				V207.786z M550.992,319.09c16.8,0,30.661-13.86,30.661-38.012c0-23.101-12.391-38.011-30.241-38.011
				c-15.75,0-30.451,11.13-30.451,38.221C520.961,300.188,530.832,319.09,550.992,319.09z"/>
			<path fill="#CDCDCD" d="M627.431,207.786c0-3.15-1.68-4.62-4.62-4.62h-8.61v-17.431h20.161c9.45,0,13.44,3.99,13.44,13.44
				v112.773c0,3.15,1.68,4.62,4.62,4.62h8.61V334h-20.161c-9.45,0-13.44-3.99-13.44-13.44V207.786z"/>
			<path fill="#CDCDCD" d="M737.822,267.848h4.62v-1.05c0-18.69-6.93-25.411-23.521-25.411c-5.041,0-17.431,1.26-17.431,8.19v6.091
				H682.38v-10.501c0-17.43,26.461-19.951,36.751-19.951c34.441,0,43.682,18.061,43.682,41.582v45.151c0,3.15,1.68,4.62,4.62,4.62
				h8.61V334h-19.111c-9.45,0-13.23-4.62-13.23-12.181c0-3.57,0.42-6.3,0.42-6.3h-0.42c0,0-8.4,21.001-33.811,21.001
				c-18.271,0-36.122-11.131-36.122-32.342C673.77,269.948,719.972,267.848,737.822,267.848z M714.302,320.14
				c17.22,0,28.351-18.061,28.351-33.812v-3.569h-5.25c-15.331,0-43.051,0.84-43.051,20.37
				C694.351,311.739,700.861,320.14,714.302,320.14z"/>
			<path fill="#CDCDCD" d="M844.682,225.216c12.811,0,38.222,5.25,38.222,23.311v10.92h-18.48v-5.88
				c0-7.56-11.971-10.92-19.741-10.92c-20.79,0-36.331,15.541-36.331,38.011c0,24.15,17.641,37.802,37.382,37.802
				c19.95,0,32.971-14.701,32.971-14.701l8.82,14.49c0,0-15.12,18.271-43.262,18.271c-33.391,0-56.701-23.731-56.701-55.652
				C787.561,249.577,810.451,225.216,844.682,225.216z"/>
			<path fill="#CDCDCD" d="M909.011,207.786c0-3.15-1.681-4.62-4.62-4.62h-8.61v-17.431h20.16c9.45,0,13.44,2.73,13.44,12.18v68.882
				h9.45c3.78,0,8.4-1.05,11.131-4.62l24.57-34.441h23.312l-28.771,39.481c-4.83,6.511-7.98,7.98-7.98,7.98v0.42
				c0,0,3.57,1.26,7.141,7.98l15.751,28.771c1.68,3.36,3.779,4.2,9.03,4.2h6.51V334h-14.7c-9.87,0-13.021-1.68-17.641-9.87
				l-19.321-35.701c-2.31-3.99-7.14-4.41-10.5-4.41h-7.98V334h-20.37V207.786z"/>
			<path fill="#CDCDCD" d="M1019.431,207.786c0-3.15-1.681-4.62-4.62-4.62h-8.61v-17.431h20.16c9.451,0,13.44,3.99,13.44,13.44
				v112.773c0,3.15,1.681,4.62,4.621,4.62h8.609V334h-20.16c-9.45,0-13.44-3.99-13.44-13.44V207.786z"/>
			<path fill="#CDCDCD" d="M1076.9,249.787c0-3.15-1.68-4.62-4.62-4.62h-8.61v-17.43h19.951c9.45,0,13.44,3.99,13.44,13.44v70.772
				c0,3.15,1.68,4.62,4.62,4.62h8.61V334h-19.951c-9.45,0-13.44-3.99-13.44-13.44V249.787z M1077.32,185.735h18.271v21.21h-18.271
				V185.735z"/>
			<path fill="#CDCDCD" d="M1170.392,225.216c26.461,0,34.021,16.591,34.021,16.591h0.42c0,0,0-1.68,0-3.36
				c0-6.3,3.36-10.71,11.76-10.71h19.741v17.43h-8.4c-2.73,0-4.62,1.47-4.62,4.2v80.223c0,35.071-26.671,48.512-53.552,48.512
				c-12.811,0-25.831-3.57-36.331-8.82l6.93-16.381c0,0,13.021,7.141,28.981,7.141c18.48,0,33.601-8.19,33.601-29.611v-7.14
				c0-3.36,0.421-6.721,0.421-6.721h-0.421c-6.3,10.29-16.17,16.171-31.711,16.171c-29.4,0-47.461-23.731-47.461-54.392
				C1123.771,247.897,1140.781,225.216,1170.392,225.216z M1203.573,278.559c0-27.722-13.651-35.702-30.031-35.702
				c-18.48,0-28.981,13.441-28.981,35.071c0,22.051,11.551,37.172,30.661,37.172C1189.922,315.1,1203.573,306.279,1203.573,278.559z
				"/>
			<path fill="#CDCDCD" d="M1258.011,207.786c0-3.15-1.681-4.62-4.62-4.62h-8.61v-17.431h20.16c9.45,0,13.44,3.99,13.44,13.021
				v41.371c0,5.04-0.42,8.82-0.42,8.82h0.42c4.62-10.291,18.271-23.731,39.481-23.731c24.991,0,36.331,13.651,36.331,40.742v45.991
				c0,3.15,1.681,4.62,4.62,4.62h8.61V334h-19.95c-9.45,0-13.44-3.99-13.44-13.44v-49.981c0-14.91-3.15-26.671-20.161-26.671
				c-16.17,0-29.19,10.92-33.601,26.251c-1.471,4.2-1.891,9.03-1.891,14.07V334h-20.37V207.786z"/>
			<path fill="#CDCDCD" d="M1390.69,244.117h-13.86v-16.38h14.28v-29.191h19.951v29.191h25.41v16.38h-25.41v48.722
				c0,21.211,14.7,23.94,22.471,23.94c2.939,0,4.83-0.42,4.83-0.42v18.061c0,0-2.73,0.42-7.141,0.42
				c-13.44,0-40.531-4.2-40.531-39.691V244.117z"/>
		</g>
	</g>
</g>
</svg>
